<svg xmlns="http://www.w3.org/2000/svg" viewBox="0 0 329.36 84.09"><defs><style>.cls-1{fill:#fff;}</style></defs><title>アセット 3</title><g id="レイヤー_2" data-name="レイヤー 2"><g id="レイヤー_1-2" data-name="レイヤー 1"><path class="cls-1" d="M19.16.77c13.27,0,19.16,9,19.16,18.08S32.59,36.93,19.16,36.93C6.46,36.93,0,28.61,0,18.85,0,9.5,6,.77,19.16.77Zm0,25.83c4.18,0,6.82-3,6.82-7.75s-2.63-7.75-6.82-7.75-6.82,3-6.82,7.75S14.93,26.6,19.16,26.6Z"/><path class="cls-1" d="M41.23,9.19H52v3.56c2.94-2.89,5.37-4,8.78-4,6,0,9.35,3.67,9.35,9.71v18H59.36V21.54c0-2.74-1-4-3.1-4-1.7,0-3.1.93-4.29,2.94v16H41.23Z"/><path class="cls-1" d="M73.61,1.24H84.35V36.47H73.61Z"/><path class="cls-1" d="M87.92,9.19H98.66V36.47H87.92Zm9-5.58a3.62,3.62,0,1,1-7.23,0,3.62,3.62,0,1,1,7.23,0Z"/><path class="cls-1" d="M102.18,9.19h10.74v3.56c2.94-2.89,5.37-4,8.78-4,6,0,9.35,3.67,9.35,9.71v18H120.31V21.54c0-2.74-1-4-3.1-4-1.7,0-3.1.93-4.29,2.94v16H102.18Z"/><path class="cls-1" d="M161.06,31.61c-3,3.46-7.39,5.32-12.6,5.32-9.4,0-15.5-6.25-15.5-14.2a13.71,13.71,0,0,1,14.1-14c8.32,0,14.82,6.66,13.64,16.12H142.88c.05,2.79,3.36,5.42,7.49,5.42,2.89,0,5.58-.93,8.73-3.1Zm-9.19-10.8c-.05-4-1.6-6.09-4.7-6.09-2.79,0-5,1.81-4.7,6.09Z"/><path class="cls-1" d="M187.61,18.13c-3.15-1.91-5.48-2.74-7.49-2.74-1.5,0-2.53.77-2.53,1.86,0,2.74,5.32,2.12,9,5.79A8.06,8.06,0,0,1,189,28.67c0,3.41-2.63,8.26-10.48,8.26-4.39,0-8.73-.93-11.67-2.63V26.55c3.56,2.69,6,3.72,8.57,3.72,1.7,0,2.84-.72,2.84-2.12,0-3.41-11.42-3.36-11.42-11.41,0-3.46,2.43-8,11-8A20.11,20.11,0,0,1,187.61,11Z"/><path class="cls-1" d="M191.1,1.24h10.74V12.65a10.93,10.93,0,0,1,8.73-3.93c5.32,0,9.35,2.89,9.35,10V36.47H209.18V21.59c0-2.53-1.14-4-3.15-4-1.55,0-2.94.93-4.18,2.69V36.47H191.1Z"/><path class="cls-1" d="M238,8.73c11.62,0,16.06,7.49,16.06,14.1,0,7.23-5.11,14.1-16,14.1-11.62,0-16.17-7.44-16.17-14.1C221.91,15.81,226.71,8.73,238,8.73Zm0,19.37a5.06,5.06,0,0,0,5.32-5.27,5.32,5.32,0,0,0-10.64,0A5.06,5.06,0,0,0,238,28.1Z"/><path class="cls-1" d="M266.76,11.83a11.52,11.52,0,0,1,8-3.1c7.13,0,12.45,5.94,12.45,13.95,0,8.47-5.73,14.26-14,14.26a17.17,17.17,0,0,1-6.4-1.19v12.5H256v-39h10.74Zm0,15.39a10.73,10.73,0,0,0,4,.88,5.31,5.31,0,0,0,5.63-5.53c0-3.2-2.27-5.37-5.63-5.37a7.6,7.6,0,0,0-4,1.19Z"/><path class="cls-1" d="M294.45,9.19h10.74V36.47H294.45Zm9-5.58a3.62,3.62,0,1,1-7.23,0,3.62,3.62,0,1,1,7.23,0Z"/><path class="cls-1" d="M328,18.13c-3.15-1.91-5.47-2.74-7.49-2.74-1.5,0-2.53.77-2.53,1.86,0,2.74,5.32,2.12,9,5.79a8.06,8.06,0,0,1,2.43,5.63c0,3.41-2.63,8.26-10.48,8.26-4.39,0-8.73-.93-11.67-2.63V26.55c3.56,2.69,6,3.72,8.57,3.72,1.7,0,2.84-.72,2.84-2.12,0-3.41-11.42-3.36-11.42-11.41,0-3.46,2.43-8,11-8A20.11,20.11,0,0,1,328,11Z"/><path class="cls-1" d="M46.91,72.36a20.31,20.31,0,0,1-7.73,1.52c-8.14,0-13.8-5.11-13.8-12.42,0-6.07,4.09-12.7,13.53-12.7A25.27,25.27,0,0,1,46.72,50v8.05a14.26,14.26,0,0,0-6.07-1.43c-3.4,0-5.7,1.93-5.7,4.74s2.44,4.65,6,4.65a14.57,14.57,0,0,0,6-1.52Z"/><path class="cls-1" d="M62.42,48.76c10.35,0,14.31,6.67,14.31,12.56,0,6.44-4.55,12.56-14.22,12.56-10.35,0-14.4-6.62-14.4-12.56C48.11,55.06,52.39,48.76,62.42,48.76Zm0,17.25a4.69,4.69,0,1,0-4.74-4.69A4.5,4.5,0,0,0,62.42,66Z"/><path class="cls-1" d="M78.69,49.17h9.57V52.4a9.76,9.76,0,0,1,7.59-3.63c3.36,0,5.52,1.29,7.31,4.33a11.42,11.42,0,0,1,8.65-4.33c5.47,0,7.91,4.33,7.91,9.16V73.47h-9.57V59.53c0-1.75-1-2.9-2.53-2.9A4.39,4.39,0,0,0,104,59.11V73.47H94.42V59.71c0-1.79-1-3.08-2.67-3.08-1.2,0-2.48.87-3.5,2.48V73.47H78.69Z"/><path class="cls-1" d="M122.94,49.17h9.57V73.47h-9.57Zm8-5A3.22,3.22,0,1,1,127.73,41,3.2,3.2,0,0,1,130.95,44.21Z"/><path class="cls-1" d="M135.72,49.17h9.57v3.17c2.62-2.58,4.78-3.59,7.82-3.59,5.34,0,8.33,3.27,8.33,8.65V73.47h-9.57V60.17c0-2.44-.87-3.54-2.76-3.54-1.52,0-2.76.83-3.82,2.62V73.47h-9.57Z"/><path class="cls-1" d="M188.05,54h-3.63a7.58,7.58,0,0,1,1.47,4.69,7.17,7.17,0,0,1-2.21,5.29c-3.73,3.73-7.73,1.89-7.73,4s6,.6,9.52,4.09a5.74,5.74,0,0,1,1.79,4.23c0,4-4,7.87-13,7.87-9.34,0-11.87-2.94-11.87-6.16,0-2.58,2.3-4.92,6-5.43v-.09a3,3,0,0,1-2-2.85c0-1.47,1-2.62,2.85-3.31-3.86-1.47-5.89-4.19-5.89-7.87,0-4.37,3.4-9.62,12.93-9.62h11.73ZM174.67,80.37c3.22,0,4.92-1,4.92-3s-1.93-3.4-4.92-3.4c-2.76,0-4.6,1.29-4.6,3.27S171.22,80.37,174.67,80.37Zm-.09-18.68c2.3,0,4-1.52,4-3.54s-1.66-3.45-4-3.45a3.52,3.52,0,1,0,0,7Z"/><path class="cls-1" d="M210.87,57.13c-2.81-1.7-4.88-2.44-6.67-2.44-1.33,0-2.25.69-2.25,1.66,0,2.44,4.74,1.89,8,5.15a7.18,7.18,0,0,1,2.16,5c0,3-2.35,7.36-9.34,7.36a21.7,21.7,0,0,1-10.4-2.35v-6.9c3.17,2.39,5.34,3.31,7.64,3.31,1.52,0,2.53-.64,2.53-1.89,0-3-10.17-3-10.17-10.17,0-3.08,2.16-7.13,9.8-7.13a17.92,17.92,0,0,1,8.7,2Z"/><path class="cls-1" d="M228.23,48.76c10.35,0,14.31,6.67,14.31,12.56,0,6.44-4.55,12.56-14.22,12.56-10.35,0-14.4-6.62-14.4-12.56C213.92,55.06,218.2,48.76,228.23,48.76Zm0,17.25a4.69,4.69,0,1,0-4.74-4.69A4.5,4.5,0,0,0,228.23,66Z"/><path class="cls-1" d="M259,48.76c10.35,0,14.31,6.67,14.31,12.56,0,6.44-4.55,12.56-14.22,12.56-10.35,0-14.4-6.62-14.4-12.56C244.66,55.06,248.94,48.76,259,48.76ZM259,66a4.69,4.69,0,1,0-4.74-4.69A4.5,4.5,0,0,0,259,66Z"/><path class="cls-1" d="M275.7,49.17h9.57v3.17c2.62-2.58,4.78-3.59,7.82-3.59,5.34,0,8.33,3.27,8.33,8.65V73.47h-9.57V60.17c0-2.44-.87-3.54-2.76-3.54-1.52,0-2.76.83-3.82,2.62V73.47H275.7Z"/><path class="cls-1" d="M316.09,68.22a5.64,5.64,0,1,1-5.61-5.61A5.62,5.62,0,0,1,316.09,68.22Z"/></g></g></svg>